<svg xmlns="http://www.w3.org/2000/svg" xmlns:xlink="http://www.w3.org/1999/xlink" width="57" height="57" viewBox="0 0 57 57">
  <defs>
    <clipPath id="clip-path">
      <rect id="Rectangle_8776" data-name="Rectangle 8776" width="57" height="57" transform="translate(0 0)" fill="none"/>
    </clipPath>
  </defs>
  <g id="Group_15634" data-name="Group 15634" transform="translate(-0.436 -0.077)">
    <g id="Group_15633" data-name="Group 15633" transform="translate(0.436 0.077)" clip-path="url(#clip-path)">
      <path id="Path_19670" data-name="Path 19670" d="M27.094,0h2.325c.22.031.439.065.66.093,1.268.164,2.552.246,3.8.5A27.711,27.711,0,0,1,49.5,9.671a27.6,27.6,0,0,1,6.749,14.945c.1.795.18,1.593.268,2.389v2.5a2.149,2.149,0,0,0-.075.3c-.107,1.006-.151,2.022-.321,3.017A27.817,27.817,0,0,1,46.71,49.612,27.513,27.513,0,0,1,31.9,56.244c-.825.107-1.654.18-2.481.269H27.094c-.22-.031-.439-.066-.66-.093-1.107-.133-2.227-.2-3.32-.406A27.778,27.778,0,0,1,6.929,46.742,27.553,27.553,0,0,1,.268,31.9C.165,31.1.089,30.305,0,29.509V27a.729.729,0,0,0,.059-.168c.082-.859.12-1.725.247-2.577A27.769,27.769,0,0,1,8.206,8.4,27.663,27.663,0,0,1,24.614.27c.824-.109,1.653-.181,2.48-.27M21.37,28.235c0,1.117.008,2.234-.006,3.351,0,.307.092.423.407.418.864-.016,1.728.009,2.591-.011a3.4,3.4,0,0,0,2.144-.77,3.79,3.79,0,0,0,1.265-3.455A3.4,3.4,0,0,0,24.3,24.5c-.834-.013-1.668.011-2.5-.009-.334-.008-.438.1-.433.435.017,1.1.006,2.2.006,3.306m18.443,1c.092-.075.147-.123.206-.166a2.511,2.511,0,0,0-1.436-4.57c-.6,0-1.192,0-1.788,0H35.421V32c.363,0,.69-.019,1.013.005.37.027.5-.113.484-.485-.025-.65-.007-1.3-.007-2a6.2,6.2,0,0,0,.806-.006.735.735,0,0,1,.817.447c.339.594.717,1.166,1.087,1.742.069.108.175.265.27.27.509.027,1.02.013,1.623.013l-1.7-2.745M20.129,31.994c0-1.241,0-2.415-.011-3.589a.337.337,0,0,0-.236-.228c-.745-.018-1.492-.047-2.234.005-.452.032-.182.449-.235.687-.065.3.078.435.4.417.339-.019.679,0,1.123,0-.071.244-.07.46-.178.576a2.015,2.015,0,0,1-3.5-.482,2.886,2.886,0,0,1,.137-2.5,1.831,1.831,0,0,1,3.007-.432c.489.5.489.5,1.065.06a.749.749,0,0,1,.106-.082c.354-.179.3-.4.1-.679a3.275,3.275,0,0,0-3.307-1.177,3.749,3.749,0,0,0-2.834,4.219,3.573,3.573,0,0,0,3.678,3.185,7.709,7.709,0,0,0,1.666-.578,1.149,1.149,0,0,0,.031.337c.034.1.135.249.217.257.319.03.643.012,1.007.012m10.314-2.479c.607,0,1.128,0,1.648,0a2.353,2.353,0,0,0,2.363-2.442,2.448,2.448,0,0,0-2.36-2.57c-.879-.009-1.759.019-2.637-.011-.424-.015-.561.1-.556.542.023,1.982.01,3.964.01,5.946,0,1.037,0,1.019,1.044,1.03.409,0,.51-.149.495-.525-.025-.637-.007-1.275-.007-1.969M4.435,30.977l.082.049c.493-.356,1.006-.687,1.471-1.075a.537.537,0,0,1,.808.011c.455.367.945.692,1.42,1.034l.1-.071c-.171-.532-.32-1.071-.519-1.592a.623.623,0,0,1,.268-.893c.5-.307.958-.68,1.434-1.025l-.03-.113H7.84c-.693,0-.689,0-.891-.646-.168-.532-.348-1.061-.566-1.722-.232.723-.44,1.309-.6,1.907a.537.537,0,0,1-.656.478c-.6-.046-1.2-.012-1.806-.012l-.035.113c.509.371,1.011.753,1.532,1.107a.47.47,0,0,1,.209.636c-.212.6-.393,1.209-.587,1.814M25.663,52.134l.1.063c.478-.344.974-.666,1.427-1.041a.538.538,0,0,1,.807.013c.454.367.943.689,1.418,1.03l.1-.074c-.174-.547-.323-1.1-.53-1.638a.579.579,0,0,1,.256-.817c.5-.326.977-.7,1.463-1.055a9.857,9.857,0,0,0-1.935-.1.494.494,0,0,1-.561-.434c-.177-.611-.384-1.214-.616-1.938-.21.635-.385,1.153-.554,1.672-.23.707-.228.706-.992.7-.528,0-1.056,0-1.716,0,.585.424,1.045.8,1.546,1.106a.636.636,0,0,1,.3.917c-.205.516-.341,1.059-.507,1.591M11.082,41.628l.083-.065c-.187-.59-.358-1.185-.568-1.767a.483.483,0,0,1,.223-.667c.523-.348,1.021-.734,1.549-1.119-.081-.052-.1-.079-.128-.079-.432,0-.863,0-1.295-.01-1.074-.025-.883.2-1.254-.943-.134-.415-.272-.828-.408-1.242A5.452,5.452,0,0,0,8.8,36.869c-.444,1.259-.084,1.029-1.44,1.052-.414.007-.828,0-1.242,0a9.18,9.18,0,0,0,1.476,1.173.546.546,0,0,1,.25.775c-.209.56-.371,1.139-.553,1.71a11.381,11.381,0,0,0,1.633-1.073.433.433,0,0,1,.625.01c.5.387,1.02.743,1.533,1.112m32.923-.077.1.07c.491-.355,1-.692,1.467-1.071a.5.5,0,0,1,.736-.009c.477.386.988.731,1.485,1.093a7.512,7.512,0,0,0-.356-1.454c-.314-.976-.324-.718.418-1.278.4-.3.815-.6,1.223-.893a10.285,10.285,0,0,0-1.874-.08.555.555,0,0,1-.657-.488c-.158-.591-.373-1.166-.564-1.748a12.4,12.4,0,0,0-.675,1.832.463.463,0,0,1-.541.4c-.207-.018-.417,0-.625,0h-1.3a10.2,10.2,0,0,0,1.536,1.228.455.455,0,0,1,.2.632c-.209.584-.385,1.179-.575,1.769M25.646,9.738l.094.066c.466-.341.948-.663,1.392-1.03a.6.6,0,0,1,.89-.009c.453.374.946.7,1.421,1.046a7.76,7.76,0,0,0-.327-1.368c-.279-.907-.278-.9.491-1.448.365-.258.722-.526,1.083-.79L30.632,6.1c-.592,0-1.186-.024-1.777.008-.41.023-.581-.15-.683-.524-.157-.58-.362-1.148-.547-1.72a11.132,11.132,0,0,0-.658,1.781.543.543,0,0,1-.636.462c-.6-.026-1.2-.007-1.807-.007l-.038.116c.5.363.987.742,1.5,1.082a.515.515,0,0,1,.219.713c-.207.57-.375,1.153-.56,1.731m15.66-.683-.038-.111c-.608,0-1.216-.019-1.823.007a.541.541,0,0,1-.636-.462c-.161-.581-.366-1.149-.555-1.732-.08.043-.12.05-.126.07-.144.422-.282.847-.425,1.269-.342,1.006-.109.832-1.185.846-.476.006-.952,0-1.427,0a6.619,6.619,0,0,0,1.332,1.064.714.714,0,0,1,.336,1.057c-.2.494-.334,1.02-.5,1.532a8.8,8.8,0,0,0,1.529-1,.546.546,0,0,1,.814,0c.461.38.962.712,1.446,1.065a9.491,9.491,0,0,0-.472-1.8.5.5,0,0,1,.216-.7c.52-.338,1.009-.726,1.511-1.093m10.55,18.332-.045-.11c-.549,0-1.1-.035-1.646.01a.711.711,0,0,1-.865-.65c-.124-.524-.319-1.032-.483-1.547l-.126.008c-.184.557-.393,1.108-.542,1.674a.58.58,0,0,1-.688.511c-.584-.03-1.171-.008-1.757-.008l-.034.125c.487.354.961.728,1.465,1.054a.535.535,0,0,1,.236.745c-.206.567-.373,1.148-.557,1.723a7.6,7.6,0,0,0,1.259-.788c.8-.582.548-.575,1.379.012.388.275.769.56,1.153.841a9.922,9.922,0,0,0-.492-1.857.458.458,0,0,1,.2-.632c.525-.354,1.027-.74,1.539-1.112m-31.75,18.42-.036-.108c-.622,0-1.244-.013-1.866.005a.5.5,0,0,1-.576-.419c-.177-.608-.386-1.207-.624-1.939-.145.426-.251.728-.349,1.032-.427,1.317-.426,1.318-1.83,1.321h-.882l-.02.137c.445.319.871.668,1.339.949a.678.678,0,0,1,.31.989c-.21.508-.347,1.047-.516,1.572a7.846,7.846,0,0,0,1.5-.969.581.581,0,0,1,.885-.009c.443.376.94.689,1.414,1.028a11.257,11.257,0,0,0-.5-1.884.416.416,0,0,1,.178-.563c.537-.367,1.055-.76,1.581-1.143m18.112-2.331-.1.009c-.188.579-.4,1.153-.557,1.74a.564.564,0,0,1-.669.48c-.6-.027-1.2-.007-1.831-.007.038.1.041.134.06.148.384.281.771.56,1.157.84.659.478.656.478.4,1.244-.153.467-.3.937-.446,1.406a7.144,7.144,0,0,0,1.328-.831c.722-.551.57-.459,1.2-.011l1.273.907a5.887,5.887,0,0,0-.28-1.176c-.337-1.08-.336-1.079.573-1.727.314-.224.623-.456.934-.684l-.053-.116c-.592,0-1.186-.022-1.776.008a.571.571,0,0,1-.662-.5c-.164-.583-.365-1.156-.55-1.733M17.047,6.776l-.125-.013c-.182.56-.392,1.113-.537,1.683a.582.582,0,0,1-.7.5c-.6-.026-1.2-.007-1.8-.007A6.533,6.533,0,0,0,15.206,10a.714.714,0,0,1,.335,1.056,14.89,14.89,0,0,0-.485,1.53,8.414,8.414,0,0,0,1.525-1,.544.544,0,0,1,.812.008c.467.372.965.7,1.45,1.054a9.574,9.574,0,0,0-.486-1.8.509.509,0,0,1,.217-.71c.525-.347,1.026-.732,1.537-1.1a9.523,9.523,0,0,0-1.671-.1c-.7,0-.7,0-.91-.686-.155-.5-.321-.988-.482-1.481M12.331,16.831l-.034-.109c-.454,0-.908.007-1.361,0-1.062-.02-.882.173-1.231-.915-.136-.425-.282-.847-.423-1.27l-.117.016-.27.837c-.431,1.334-.431,1.334-1.822,1.334H6.18l-.024.133c.479.347.944.715,1.441,1.034a.555.555,0,0,1,.245.78c-.2.55-.363,1.116-.542,1.676l.1.063c.429-.31.86-.618,1.286-.931.544-.4.541-.4,1.095,0,.433.316.871.627,1.306.94a8.546,8.546,0,0,0-.469-1.764.548.548,0,0,1,.249-.774c.5-.329.978-.7,1.464-1.052m35.416,3.526.1-.07c-.147-.475-.286-.953-.441-1.426-.236-.718-.24-.717.367-1.148l1.244-.887-.05-.126c-.455,0-.91,0-1.365,0-1.022-.011-.847.112-1.158-.834-.152-.46-.306-.92-.459-1.38a7.06,7.06,0,0,0-.619,1.624.669.669,0,0,1-.814.6C44,16.672,43.44,16.7,42.882,16.7l-.032.112c.5.362.987.738,1.5,1.079a.5.5,0,0,1,.214.7c-.211.56-.371,1.139-.552,1.71l.1.065c.442-.319.909-.609,1.318-.966a.671.671,0,0,1,1.033.017c.4.344.851.627,1.28.936" transform="translate(-0.245 0.486)" fill="#00349a"/>
      <path id="Path_19675" data-name="Path 19675" d="M119.462,140.7c0-1.1.01-2.2-.006-3.306,0-.33.1-.443.433-.435.834.02,1.668,0,2.5.009a3.4,3.4,0,0,1,3.473,3.264,3.79,3.79,0,0,1-1.265,3.455,3.4,3.4,0,0,1-2.144.77c-.863.02-1.728,0-2.591.011-.315.006-.41-.111-.407-.418.014-1.117.005-2.234.005-3.351m1.558,2.4c1.157.048,2.289.194,2.989-.974a3.056,3.056,0,0,0-.143-3.058c-.759-.958-1.806-.769-2.845-.738Z" transform="translate(-98.337 -111.979)" fill="#fff"/>
      <path id="Path_19676" data-name="Path 19676" d="M202.451,141.727l1.7,2.745c-.6,0-1.114.014-1.623-.013-.1-.005-.2-.163-.27-.27-.37-.576-.748-1.148-1.087-1.742a.735.735,0,0,0-.817-.447,6.165,6.165,0,0,1-.806.006c0,.7-.018,1.355.007,2,.014.371-.114.512-.485.485-.323-.024-.65,0-1.013,0v-7.5h1.376c.6,0,1.192,0,1.788,0a2.511,2.511,0,0,1,1.436,4.57c-.059.042-.114.091-.206.166m-2.895-3.383c0,.732-.009,1.425.014,2.116,0,.071.2.189.31.195.444.023.89.017,1.334.008a1.051,1.051,0,0,0,1-1.09c.037-.528-.377-1.182-.841-1.217-.585-.045-1.177-.011-1.822-.011" transform="translate(-162.883 -112.004)" fill="#fff"/>
      <path id="Path_19677" data-name="Path 19677" d="M82.086,144.425c-.363,0-.687.018-1.007-.012-.082-.008-.183-.155-.217-.257a1.147,1.147,0,0,1-.031-.337,7.72,7.72,0,0,1-1.666.578,3.574,3.574,0,0,1-3.678-3.185,3.75,3.75,0,0,1,2.834-4.219,3.275,3.275,0,0,1,3.307,1.177c.2.282.249.5-.1.679a.755.755,0,0,0-.106.082c-.576.442-.576.442-1.065-.06a1.831,1.831,0,0,0-3.007.432,2.885,2.885,0,0,0-.137,2.5,2.015,2.015,0,0,0,3.5.482c.107-.115.106-.331.178-.576-.444,0-.785-.015-1.123,0-.317.018-.461-.119-.4-.417.052-.239-.217-.656.235-.687.741-.052,1.489-.023,2.234-.005a.336.336,0,0,1,.236.228c.015,1.174.011,2.348.011,3.589" transform="translate(-62.203 -111.945)" fill="#fff"/>
      <path id="Path_19678" data-name="Path 19678" d="M163.145,141.96c0,.693-.018,1.332.007,1.969.015.377-.085.53-.495.525-1.044-.011-1.044.007-1.044-1.03,0-1.982.013-3.964-.01-5.946-.005-.439.132-.557.556-.542.878.031,1.758,0,2.637.012a2.448,2.448,0,0,1,2.36,2.57,2.353,2.353,0,0,1-2.364,2.442c-.52,0-1.041,0-1.648,0m.035-1.38a1.489,1.489,0,0,0,.208.035c.447,0,.894.013,1.34,0,.54-.014.86-.388.895-1.019.039-.724-.267-1.252-.81-1.293s-1.068-.009-1.633-.009Z" transform="translate(-132.947 -111.958)" fill="#fff"/>
      <path id="Path_19679" data-name="Path 19679" d="M19.5,145.457c.194-.605.375-1.215.587-1.814a.47.47,0,0,0-.209-.636c-.521-.354-1.022-.736-1.532-1.107l.035-.113c.6,0,1.208-.034,1.806.012.4.03.557-.117.656-.478.164-.6.372-1.184.6-1.907.218.661.4,1.19.566,1.722.2.643.2.645.891.646h1.628l.03.113c-.476.345-.934.718-1.434,1.025a.623.623,0,0,0-.268.893c.2.521.348,1.06.519,1.592l-.1.071c-.475-.343-.965-.667-1.42-1.034a.537.537,0,0,0-.808-.011c-.466.388-.979.72-1.471,1.075l-.082-.049" transform="translate(-15.312 -113.994)" fill="#ffcc01"/>
      <path id="Path_19680" data-name="Path 19680" d="M137.359,264.008c.166-.532.3-1.075.507-1.591a.636.636,0,0,0-.3-.917c-.5-.308-.961-.683-1.546-1.106.66,0,1.188,0,1.716,0,.764,0,.762,0,.992-.7.169-.519.343-1.037.553-1.672.232.723.439,1.326.616,1.938a.494.494,0,0,0,.561.434,9.859,9.859,0,0,1,1.935.1c-.486.354-.959.729-1.463,1.055a.579.579,0,0,0-.256.817c.207.535.356,1.091.53,1.638l-.1.074c-.474-.341-.964-.663-1.418-1.03a.538.538,0,0,0-.807-.013c-.453.375-.949.7-1.427,1.041Z" transform="translate(-111.942 -211.388)" fill="#ffcc01"/>
      <path id="Path_19681" data-name="Path 19681" d="M39.174,205.715c-.512-.369-1.034-.725-1.533-1.112a.433.433,0,0,0-.626-.01,11.38,11.38,0,0,1-1.633,1.073c.182-.571.343-1.149.553-1.71a.546.546,0,0,0-.25-.775,9.172,9.172,0,0,1-1.476-1.173c.414,0,.828.006,1.242,0,1.356-.022,1,.207,1.44-1.052a5.441,5.441,0,0,1,.483-1.132c.136.414.274.827.408,1.242.371,1.147.18.918,1.254.943.431.01.863.005,1.295.01.024,0,.047.028.128.079-.528.385-1.026.771-1.549,1.119a.483.483,0,0,0-.223.667c.21.581.381,1.177.568,1.767l-.083.065" transform="translate(-28.337 -163.601)" fill="#ffcc01"/>
      <path id="Path_19682" data-name="Path 19682" d="M240.735,205.44c.19-.591.366-1.186.575-1.769a.455.455,0,0,0-.2-.632,10.2,10.2,0,0,1-1.536-1.228h1.3c.208,0,.418-.014.625,0a.464.464,0,0,0,.541-.4,12.391,12.391,0,0,1,.675-1.832c.191.582.406,1.157.563,1.748a.555.555,0,0,0,.657.488,10.285,10.285,0,0,1,1.874.08c-.408.3-.82.589-1.223.893-.743.56-.733.3-.418,1.278a7.526,7.526,0,0,1,.356,1.454c-.5-.362-1.008-.707-1.485-1.093a.5.5,0,0,0-.736.009c-.472.378-.976.716-1.467,1.07l-.1-.07" transform="translate(-196.975 -163.402)" fill="#ffcc01"/>
      <path id="Path_19683" data-name="Path 19683" d="M138.075,27.464c.184-.578.353-1.161.56-1.731a.515.515,0,0,0-.219-.713c-.514-.34-1-.719-1.5-1.082l.038-.116c.6,0,1.206-.019,1.807.007a.543.543,0,0,0,.637-.462,11.127,11.127,0,0,1,.658-1.781c.185.573.389,1.14.547,1.72.1.374.273.546.683.524.591-.032,1.184-.008,1.777-.008l.057.108c-.361.264-.718.532-1.083.79-.769.543-.77.541-.491,1.448a7.761,7.761,0,0,1,.327,1.368c-.476-.346-.968-.672-1.421-1.046a.6.6,0,0,0-.89.009c-.444.368-.926.689-1.392,1.03Z" transform="translate(-112.674 -17.24)" fill="#ffcc01"/>
      <path id="Path_19684" data-name="Path 19684" d="M202.428,40.081c-.5.367-.99.755-1.511,1.093a.5.5,0,0,0-.216.7,9.494,9.494,0,0,1,.472,1.8c-.484-.352-.985-.685-1.446-1.065a.546.546,0,0,0-.814,0,8.8,8.8,0,0,1-1.529,1c.162-.512.292-1.037.5-1.532a.714.714,0,0,0-.337-1.057,6.624,6.624,0,0,1-1.332-1.064c.476,0,.952.005,1.427,0,1.076-.015.843.16,1.185-.846.143-.423.281-.847.425-1.269.007-.019.047-.027.126-.07.19.583.395,1.151.556,1.732a.541.541,0,0,0,.635.462c.607-.026,1.215-.007,1.823-.007l.038.111" transform="translate(-161.367 -30.539)" fill="#ffcc01"/>
      <path id="Path_19685" data-name="Path 19685" d="M261.559,142.6c-.512.373-1.014.759-1.539,1.112a.458.458,0,0,0-.2.632,9.923,9.923,0,0,1,.492,1.857c-.384-.281-.764-.566-1.153-.841-.831-.588-.576-.595-1.379-.012a7.62,7.62,0,0,1-1.259.788c.183-.575.351-1.156.557-1.723a.535.535,0,0,0-.236-.745c-.505-.326-.979-.7-1.465-1.054l.034-.125c.586,0,1.173-.023,1.757.008a.58.58,0,0,0,.688-.511c.15-.566.358-1.117.542-1.674l.126-.008c.164.515.359,1.022.483,1.547a.711.711,0,0,0,.865.65c.545-.046,1.1-.01,1.646-.01l.045.11" transform="translate(-209.947 -114.722)" fill="#ffcc01"/>
      <path id="Path_19686" data-name="Path 19686" d="M84.036,244.835c-.526.383-1.044.776-1.581,1.143a.416.416,0,0,0-.178.563,11.238,11.238,0,0,1,.5,1.884c-.474-.34-.971-.652-1.414-1.028a.581.581,0,0,0-.885.009,7.83,7.83,0,0,1-1.5.969c.169-.525.306-1.064.516-1.572a.678.678,0,0,0-.31-.989c-.467-.281-.895-.63-1.339-.949l.02-.137h.882c1.4,0,1.4,0,1.83-1.321.1-.3.2-.605.349-1.031.238.732.448,1.331.625,1.939a.5.5,0,0,0,.576.419c.621-.018,1.244-.005,1.866-.005l.036.108" transform="translate(-64.174 -198.542)" fill="#ffcc01"/>
      <path id="Path_19687" data-name="Path 19687" d="M199.2,243.1c.185.577.387,1.15.55,1.734a.57.57,0,0,0,.662.5c.591-.03,1.184-.008,1.776-.008l.053.116c-.311.228-.62.46-.934.684-.908.648-.91.647-.573,1.727a5.893,5.893,0,0,1,.28,1.176l-1.273-.907c-.628-.448-.475-.54-1.2.011a7.136,7.136,0,0,1-1.328.831c.148-.469.293-.939.446-1.406.251-.767.254-.766-.4-1.244-.386-.28-.772-.559-1.157-.84-.019-.014-.021-.05-.06-.148.628,0,1.231-.02,1.831.007a.564.564,0,0,0,.669-.48c.159-.587.369-1.161.557-1.74l.1-.009" transform="translate(-161.224 -199.137)" fill="#ffcc01"/>
      <path id="Path_19688" data-name="Path 19688" d="M80.828,37.83c.161.494.327.986.482,1.481.213.684.21.685.91.686a9.539,9.539,0,0,1,1.671.1c-.511.369-1.011.754-1.537,1.1a.509.509,0,0,0-.217.71,9.549,9.549,0,0,1,.486,1.8c-.485-.349-.983-.682-1.45-1.054a.544.544,0,0,0-.812-.008,8.41,8.41,0,0,1-1.525,1,14.859,14.859,0,0,1,.485-1.53.713.713,0,0,0-.335-1.056A6.528,6.528,0,0,1,77.671,40c.6,0,1.2-.019,1.8.007a.582.582,0,0,0,.7-.5c.145-.57.355-1.123.537-1.683l.125.013" transform="translate(-64.026 -30.567)" fill="#ffcc01"/>
      <path id="Path_19689" data-name="Path 19689" d="M40.6,83.57c-.487.353-.962.723-1.464,1.052a.548.548,0,0,0-.249.774,8.546,8.546,0,0,1,.469,1.764c-.435-.313-.873-.624-1.306-.94-.554-.4-.551-.4-1.095,0-.426.314-.858.621-1.287.931l-.1-.063c.178-.559.337-1.126.542-1.676a.555.555,0,0,0-.245-.78c-.5-.319-.962-.687-1.441-1.034l.023-.133h.892c1.391,0,1.391,0,1.822-1.334l.27-.837.117-.016c.141.423.287.845.423,1.27.349,1.088.169.895,1.231.915.454.009.907,0,1.361,0l.034.109" transform="translate(-28.513 -66.253)" fill="#ffcc01"/>
      <path id="Path_19690" data-name="Path 19690" d="M244.5,86.868c-.429-.309-.881-.592-1.28-.936a.671.671,0,0,0-1.033-.017c-.409.357-.876.647-1.318.966l-.1-.065c.181-.571.342-1.15.552-1.71a.5.5,0,0,0-.214-.7c-.513-.34-1-.717-1.5-1.079l.032-.112c.557,0,1.117-.027,1.672.008a.669.669,0,0,0,.814-.6A7.061,7.061,0,0,1,242.737,81c.153.46.307.919.459,1.38.312.946.137.823,1.158.834.455,0,.91,0,1.365,0l.05.126-1.244.887c-.608.432-.6.43-.367,1.148.155.473.295.95.441,1.426l-.1.07" transform="translate(-196.996 -66.025)" fill="#ffcc01"/>
      <path id="Path_19691" data-name="Path 19691" d="M128.2,149.244v-4.77c1.039-.031,2.086-.22,2.845.738a3.056,3.056,0,0,1,.143,3.058c-.7,1.167-1.832,1.022-2.989.974" transform="translate(-105.521 -118.121)" fill="#039"/>
      <path id="Path_19692" data-name="Path 19692" d="M206.427,144.5c.645,0,1.236-.034,1.822.011.464.035.878.689.841,1.217a1.051,1.051,0,0,1-1,1.09c-.445.01-.89.015-1.334-.008-.111-.006-.308-.124-.31-.195-.024-.691-.014-1.383-.014-2.116" transform="translate(-169.754 -118.164)" fill="#039"/>
      <path id="Path_19693" data-name="Path 19693" d="M170.422,146.771v-2.285c.566,0,1.1-.031,1.633.009s.849.57.81,1.293c-.035.63-.354,1-.895,1.019-.446.012-.893,0-1.34,0a1.487,1.487,0,0,1-.208-.035" transform="translate(-140.189 -118.15)" fill="#039"/>
    </g>
  </g>
</svg>
