<svg id="Layer_1" data-name="Layer 1" xmlns="http://www.w3.org/2000/svg" xmlns:xlink="http://www.w3.org/1999/xlink" viewBox="0 0 325.67 108.84"><defs><style>.cls-1{fill:#010022;}.cls-2{fill:url(#linear-gradient);}.cls-3{fill:url(#linear-gradient-2);}.cls-4{fill:#2741ff;}</style><linearGradient id="linear-gradient" x1="17.58" y1="32.6" x2="107.78" y2="209.73" gradientUnits="userSpaceOnUse"><stop offset="0.2" stop-color="#00dfff"/><stop offset="0.21" stop-color="#02d8ff"/><stop offset="0.28" stop-color="#0cb0ff"/><stop offset="0.36" stop-color="#148eff"/><stop offset="0.44" stop-color="#1b72ff"/><stop offset="0.53" stop-color="#205cff"/><stop offset="0.63" stop-color="#244dff"/><stop offset="0.74" stop-color="#2644ff"/><stop offset="0.91" stop-color="#2741ff"/></linearGradient><linearGradient id="linear-gradient-2" x1="42.25" y1="12.27" x2="71.47" y2="59.35" gradientUnits="userSpaceOnUse"><stop offset="0.2" stop-color="#00dfff"/><stop offset="1" stop-color="#2741ff"/></linearGradient></defs><path class="cls-1" d="M128.24,27.06A17.12,17.12,0,0,1,140.84,33V27.88h9.66V68c0,12.19-8.27,19.64-21.85,19.64A27.1,27.1,0,0,1,110.57,81l6.7-6.71a18.37,18.37,0,0,0,11.54,4.18c7.61,0,12-3.69,12-9.82V63.55a16.68,16.68,0,0,1-12.6,6.06C116.54,69.61,108,60,108,48.33S116.54,27.06,128.24,27.06ZM117.6,48.33a11.62,11.62,0,1,0,11.62-11.61A11.66,11.66,0,0,0,117.6,48.33Z"/><path class="cls-1" d="M160,68.79V27.88h9.65v4.66c2.64-4.6,9.7-5.48,14.94-5.48v9.16a4.78,4.78,0,0,0-1.06-.08c-6.14,0-13.57.58-13.88,10.56V68.79Z"/><path class="cls-1" d="M204.86,27.06A17.11,17.11,0,0,1,217.46,33V27.88h9.66V68.79h-9.66V63.55a16.66,16.66,0,0,1-12.6,6.06c-11.7,0-20.29-9.57-20.29-21.28S193.16,27.06,204.86,27.06ZM194.22,48.33a11.62,11.62,0,1,0,11.62-11.61A11.66,11.66,0,0,0,194.22,48.33Z"/><path class="cls-1" d="M254,27.06A17.11,17.11,0,0,1,266.62,33V27.88h9.66V68.79h-9.66V63.55A16.66,16.66,0,0,1,254,69.61c-11.7,0-20.29-9.57-20.29-21.28S242.32,27.06,254,27.06ZM243.39,48.33A11.62,11.62,0,1,0,255,36.72,11.66,11.66,0,0,0,243.39,48.33Z"/><path class="cls-1" d="M288.62,56A19.5,19.5,0,0,0,301,60.85c4.1,0,7.29-1.71,7.29-3.92,0-3.44-5.16-4.5-8.19-5.32-6.7-1.88-15.79-3.85-15.79-12.6,0-7,6.8-11.95,16-11.95a24.63,24.63,0,0,1,16.28,6l-5.32,6.55a16.94,16.94,0,0,0-11-3.76c-4.25,0-6.3,1.47-6.3,3.27,0,2.21,4.09,3.11,8.51,4.17,8.1,1.88,15.38,4.75,15.38,13.58,0,7.37-7.28,12.77-17.18,12.77a26,26,0,0,1-17.84-7Z"/><polygon class="cls-2" points="34.73 49.9 34.73 49.9 34.73 49.9 21.83 42.45 8.93 35 8.93 49.9 21.83 57.34 34.73 64.79 34.73 79.68 34.73 94.58 47.63 102.03 47.63 87.13 47.63 72.24 47.63 57.34 34.73 49.9"/><polyline class="cls-3" points="73.4 42.54 86.33 35.14 73.35 27.59 60.53 20.12 47.69 12.64 34.79 20.06 21.76 27.4 34.73 34.95 47.6 42.45 60.48 49.94 73.4 42.54"/><polygon class="cls-4" points="60.48 49.94 86.33 35.14 86.33 79.68 60.53 94.58 60.48 49.94"/><path d="M168.7,91.35h1.89v4.31a7.4,7.4,0,0,1-2.1,1.07,7.29,7.29,0,0,1-2.38.42,6,6,0,0,1-3-.78,5.83,5.83,0,0,1-2.16-2.11,5.71,5.71,0,0,1-.8-3,5.52,5.52,0,0,1,.82-2.94,5.7,5.7,0,0,1,2.21-2.09,6.33,6.33,0,0,1,3.1-.77,6.83,6.83,0,0,1,2.39.44,6.41,6.41,0,0,1,2.05,1.2l-1.24,1.6a4.75,4.75,0,0,0-3.2-1.29,3.81,3.81,0,0,0-2,.51,3.74,3.74,0,0,0-1.42,1.4,3.83,3.83,0,0,0-.52,1.94,3.79,3.79,0,0,0,.53,2,3.9,3.9,0,0,0,3.39,1.93,4.24,4.24,0,0,0,1.23-.19,5.25,5.25,0,0,0,1.22-.53Z"/><path d="M176.32,88.7a3.47,3.47,0,0,1,1.76-.46v2a2.89,2.89,0,0,0-2.15.62,2.43,2.43,0,0,0-.8,1.91V97H173V88.32h2.11V90A3.17,3.17,0,0,1,176.32,88.7Z"/><path d="M185.71,88.81a4,4,0,0,1,1.61,1.54,4.55,4.55,0,0,1,.57,2.29,4.61,4.61,0,0,1-.57,2.32,4,4,0,0,1-1.61,1.56,5,5,0,0,1-2.37.55,5.12,5.12,0,0,1-2.4-.55A4,4,0,0,1,179.33,95a4.61,4.61,0,0,1-.57-2.32,4.55,4.55,0,0,1,.57-2.29,3.92,3.92,0,0,1,1.61-1.54,5,5,0,0,1,2.4-.56A4.88,4.88,0,0,1,185.71,88.81Zm-4.15,2a3,3,0,0,0,0,3.79,2.31,2.31,0,0,0,1.78.73,2.27,2.27,0,0,0,1.75-.73,3,3,0,0,0,0-3.79,2.31,2.31,0,0,0-1.75-.73A2.34,2.34,0,0,0,181.56,90.78Z"/><path d="M188.09,88.34l2.17,0,2.12,6.54,2.05-6.54h2.13l2.08,6.54,2.08-6.54h2.12L199.7,97h-2.16l-2.07-6.1L193.41,97h-2.15Z"/><path d="M209.14,96.45a4.1,4.1,0,0,1-2.17.63,2.61,2.61,0,0,1-1.83-.65,2.5,2.5,0,0,1-.71-1.94V90.21h-1.22V88.68h1.23V86.3h2.09v2.38H209v1.53h-2.47v3.91a1.28,1.28,0,0,0,.22.85.86.86,0,0,0,.68.25,2.94,2.94,0,0,0,1.23-.36Z"/><path d="M218.45,89.14a3.39,3.39,0,0,1,.86,2.43V97h-2.12V92.19a1.93,1.93,0,0,0-.52-1.43,1.88,1.88,0,0,0-1.41-.53,2.18,2.18,0,0,0-1.67.71,2.6,2.6,0,0,0-.61,1.78V97h-2.11V85H213v5a3.27,3.27,0,0,1,3.12-1.73A3.08,3.08,0,0,1,218.45,89.14Z"/><path d="M230.76,97v-1a2.75,2.75,0,0,1-1.17.86,4.35,4.35,0,0,1-1.63.29,3.4,3.4,0,0,1-1.6-.35,2.54,2.54,0,0,1-1.06-1,2.59,2.59,0,0,1-.37-1.38,2.31,2.31,0,0,1,.86-1.9,3.84,3.84,0,0,1,2.43-.7h2.52v-.23a1.43,1.43,0,0,0-.5-1.18,2.2,2.2,0,0,0-1.45-.42,5,5,0,0,0-2.58.81l-.76-1.46a9.77,9.77,0,0,1,1.85-.82,6.74,6.74,0,0,1,1.95-.25,3.86,3.86,0,0,1,2.62.81,2.89,2.89,0,0,1,.95,2.27V97ZM230,95a1.46,1.46,0,0,0,.72-1.06V93.2h-2.18a2.35,2.35,0,0,0-1.24.25.87.87,0,0,0-.4.81,1.06,1.06,0,0,0,.42.88,1.74,1.74,0,0,0,1.12.32A2.74,2.74,0,0,0,230,95Z"/><path d="M239,90.09a4.18,4.18,0,0,0-1.24-.21,1.7,1.7,0,0,0-.85.18.64.64,0,0,0-.32.58.69.69,0,0,0,.4.62,5.91,5.91,0,0,0,1.25.46,15.07,15.07,0,0,1,1.5.54,3,3,0,0,1,1,.8,2.15,2.15,0,0,1,.43,1.38,2.25,2.25,0,0,1-1,2,4.16,4.16,0,0,1-2.44.68,6.24,6.24,0,0,1-2-.32,4.54,4.54,0,0,1-1.62-.9l.73-1.47a4.36,4.36,0,0,0,1.39.78,4.64,4.64,0,0,0,1.54.29,1.78,1.78,0,0,0,.93-.21.65.65,0,0,0,.35-.6.73.73,0,0,0-.41-.68,6.46,6.46,0,0,0-1.31-.51,10.11,10.11,0,0,1-1.42-.51,2.5,2.5,0,0,1-1-.76,2.07,2.07,0,0,1-.4-1.33,2.27,2.27,0,0,1,.93-2,4,4,0,0,1,2.34-.67,5.72,5.72,0,0,1,1.69.25,4.9,4.9,0,0,1,1.48.68l-.76,1.52A6,6,0,0,0,239,90.09Z"/><path d="M252.09,97v-1a2.75,2.75,0,0,1-1.17.86,4.35,4.35,0,0,1-1.63.29,3.4,3.4,0,0,1-1.6-.35,2.54,2.54,0,0,1-1.06-1,2.59,2.59,0,0,1-.37-1.38,2.31,2.31,0,0,1,.86-1.9,3.84,3.84,0,0,1,2.43-.7h2.52v-.23a1.43,1.43,0,0,0-.5-1.18,2.2,2.2,0,0,0-1.45-.42,5,5,0,0,0-2.58.81l-.76-1.46a9.77,9.77,0,0,1,1.85-.82,6.74,6.74,0,0,1,2-.25,3.86,3.86,0,0,1,2.62.81,2.89,2.89,0,0,1,1,2.27V97Zm-.74-2a1.46,1.46,0,0,0,.72-1.06V93.2h-2.18a2.35,2.35,0,0,0-1.24.25.87.87,0,0,0-.4.81,1.06,1.06,0,0,0,.42.88,1.74,1.74,0,0,0,1.12.32A2.74,2.74,0,0,0,251.35,95Z"/><path d="M265.91,87.74a5.19,5.19,0,0,0-1.61-.29,2.2,2.2,0,0,0-1.23.29.91.91,0,0,0-.45.81,1.06,1.06,0,0,0,.31.78,2.41,2.41,0,0,0,.8.52,13.26,13.26,0,0,0,1.3.45,12.8,12.8,0,0,1,1.89.68,3.27,3.27,0,0,1,1.25,1,2.74,2.74,0,0,1,.52,1.75,3,3,0,0,1-.56,1.8,3.41,3.41,0,0,1-1.54,1.18,5.81,5.81,0,0,1-2.24.4,7,7,0,0,1-2.59-.49,7.32,7.32,0,0,1-2.2-1.32l.9-1.85a6.73,6.73,0,0,0,1.93,1.25,5.16,5.16,0,0,0,2,.45,2.56,2.56,0,0,0,1.43-.34,1.11,1.11,0,0,0,.52-1,1.09,1.09,0,0,0-.32-.8,2.39,2.39,0,0,0-.8-.51c-.33-.13-.77-.28-1.33-.44a17.74,17.74,0,0,1-1.88-.66,3.36,3.36,0,0,1-1.24-1,2.7,2.7,0,0,1-.52-1.73,2.87,2.87,0,0,1,.52-1.72,3.42,3.42,0,0,1,1.49-1.15,5.76,5.76,0,0,1,2.23-.4,7.77,7.77,0,0,1,2.18.32,7.36,7.36,0,0,1,1.92.88l-.88,1.89A8.21,8.21,0,0,0,265.91,87.74Z"/><path d="M277.4,89.44a4.87,4.87,0,0,1,1,3.32c0,.28,0,.49,0,.63H272a2.55,2.55,0,0,0,.86,1.45,2.52,2.52,0,0,0,1.61.53,3.29,3.29,0,0,0,1.28-.26,3,3,0,0,0,1.06-.72L278,95.58a4.45,4.45,0,0,1-1.58,1.1,5.29,5.29,0,0,1-2.06.39,4.87,4.87,0,0,1-2.34-.55A3.9,3.9,0,0,1,270.42,95a4.76,4.76,0,0,1-.55-2.29,4.66,4.66,0,0,1,.56-2.3A4,4,0,0,1,272,88.81a4.65,4.65,0,0,1,2.29-.56A4,4,0,0,1,277.4,89.44ZM276.51,92a2.08,2.08,0,0,0-.63-1.52,2.45,2.45,0,0,0-3.13,0A2.45,2.45,0,0,0,272,92Z"/><path d="M283.55,88.7a3.47,3.47,0,0,1,1.76-.46v2a2.89,2.89,0,0,0-2.15.62,2.43,2.43,0,0,0-.8,1.91V97h-2.11V88.32h2.11V90A3.17,3.17,0,0,1,283.55,88.7Z"/><path d="M285.86,88.34l2.2,0,2.27,6.59,2.22-6.59h2.12L291.36,97h-2.17Z"/><path d="M297.78,85a1.3,1.3,0,0,1,.34.91,1.26,1.26,0,0,1-.34.89,1.14,1.14,0,0,1-.86.35,1.12,1.12,0,0,1-.86-.35,1.22,1.22,0,0,1-.34-.89,1.25,1.25,0,0,1,.34-.91,1.13,1.13,0,0,1,.86-.36A1.15,1.15,0,0,1,297.78,85Zm-1.9,3.37H298V97h-2.11Z"/><path d="M304.29,90.1a2.24,2.24,0,0,0-1.71.71,3,3,0,0,0,0,3.73,2.24,2.24,0,0,0,1.71.71,2.75,2.75,0,0,0,2.33-1l1.31,1.09a3.81,3.81,0,0,1-1.54,1.29,5.11,5.11,0,0,1-2.22.46,4.68,4.68,0,0,1-2.27-.55A4,4,0,0,1,300.35,95a4.65,4.65,0,0,1-.55-2.29,4.71,4.71,0,0,1,.56-2.32,3.82,3.82,0,0,1,1.56-1.55,4.6,4.6,0,0,1,2.29-.56,5.1,5.1,0,0,1,2.11.42,3.67,3.67,0,0,1,1.51,1.17l-1.27,1.22A2.94,2.94,0,0,0,304.29,90.1Z"/><path d="M316.15,89.44a4.83,4.83,0,0,1,1.05,3.32c0,.28,0,.49,0,.63h-6.4a2.43,2.43,0,0,0,2.48,2,3.24,3.24,0,0,0,1.27-.26,2.86,2.86,0,0,0,1.06-.72l1.14,1.19a4.54,4.54,0,0,1-1.58,1.1,5.3,5.3,0,0,1-2.07.39,4.93,4.93,0,0,1-2.34-.55A3.94,3.94,0,0,1,309.18,95a4.65,4.65,0,0,1-.55-2.29,4.56,4.56,0,0,1,.56-2.3,4,4,0,0,1,1.56-1.57,4.64,4.64,0,0,1,2.28-.56A3.92,3.92,0,0,1,316.15,89.44ZM315.27,92a2.08,2.08,0,0,0-.63-1.52,2.21,2.21,0,0,0-1.59-.57,2.25,2.25,0,0,0-1.55.56,2.5,2.5,0,0,0-.77,1.53Z"/></svg>